<svg width="800" height="600" viewBox="0 0 800 600" fill="none" xmlns="http://www.w3.org/2000/svg">
<rect width="800" height="600" fill="#E9D8BC"/>
<ellipse cx="400" cy="470" rx="250" ry="30" fill="#805237" opacity=".25"/>
<path d="M285 240H515L490 430C487 450 470 465 450 465H350C330 465 313 450 310 430L285 240Z" fill="#F4E6CC" stroke="#7A4731" stroke-width="10"/>
<path d="M515 285C620 270 625 390 505 370" stroke="#7A4731" stroke-width="12" fill="none"/>
<path d="M320 285H480" stroke="#8B4B2D" stroke-width="18"/>
<path d="M350 180C330 140 375 135 355 95M425 180C405 140 450 135 430 95M480 180C460 140 505 135 485 95" stroke="#B77B52" stroke-width="10" stroke-linecap="round"/>
<text x="400" y="530" font-family="Georgia,serif" font-size="34" fill="#6B2737" text-anchor="middle">Hot Beverages</text>
</svg>